<?xml version="1.0" standalone="no"?>
<!DOCTYPE svg PUBLIC "-//W3C//DTD SVG 20010904//EN"
 "http://www.w3.org/TR/2001/REC-SVG-20010904/DTD/svg10.dtd">
<svg version="1.0" xmlns="http://www.w3.org/2000/svg"
 width="459.000000pt" height="442.000000pt" viewBox="0 0 459.000000 442.000000"
 preserveAspectRatio="xMidYMid meet">
<metadata>
Created by potrace 1.15, written by Peter Selinger 2001-2017
</metadata>
<g transform="translate(0.000000,442.000000) scale(0.100000,-0.100000)"
fill="#000000" stroke="none">
<path d="M1114 3971 c-54 -39 -71 -60 -89 -110 -13 -38 -15 -234 -15 -1641 0
-1774 -5 -1648 67 -1722 62 -64 93 -70 316 -66 l195 3 44 30 c50 36 84 82 98
136 7 24 9 584 8 1641 l-3 1603 -28 48 c-16 26 -47 61 -69 77 l-41 30 -222 0
-222 0 -39 -29z"/>
<path d="M2938 3967 c-24 -18 -54 -53 -68 -77 l-25 -45 -3 -1595 c-2 -1185 0
-1609 8 -1649 10 -43 22 -63 60 -102 29 -29 63 -52 86 -58 22 -6 120 -11 219
-11 202 0 232 8 292 71 67 71 63 -45 63 1719 0 1407 -2 1603 -15 1641 -18 50
-35 71 -89 110 l-39 29 -223 0 -222 0 -44 -33z"/>
<path d="M383 3569 c-37 -11 -90 -61 -105 -98 -6 -17 -9 -472 -10 -1253 0
-1372 -5 -1274 71 -1323 61 -40 114 -47 318 -43 200 4 223 9 281 62 55 49 52
-21 52 1300 0 843 -3 1233 -11 1253 -15 40 -48 73 -94 94 -35 16 -66 18 -255
18 -118 0 -229 -5 -247 -10z"/>
<path d="M3715 3573 c-31 -8 -94 -62 -111 -94 -13 -25 -14 -187 -14 -1260 0
-1362 -5 -1259 67 -1318 50 -42 106 -51 302 -51 202 0 248 11 306 70 l40 41 5
612 c3 337 3 902 0 1257 l-5 645 -23 31 c-50 66 -63 69 -317 71 -126 1 -239
-1 -250 -4z"/>
<path d="M1756 2494 c-3 -26 -6 -165 -6 -309 0 -241 1 -263 18 -278 17 -15 68
-17 524 -17 484 0 506 1 522 19 16 17 17 46 14 313 -2 161 -7 299 -11 306 -6
9 -124 12 -531 12 l-523 0 -7 -46z"/>
<path d="M67 2422 c-15 -16 -17 -45 -17 -204 0 -219 0 -218 98 -218 54 0 63 3
81 26 19 25 21 40 21 196 0 166 0 169 -25 193 -20 21 -34 25 -83 25 -44 0 -63
-5 -75 -18z"/>
<path d="M4355 2415 c-25 -24 -25 -27 -25 -193 0 -156 2 -171 21 -196 18 -23
27 -26 83 -26 96 0 96 0 96 222 0 218 0 218 -94 218 -47 0 -61 -4 -81 -25z"/>
</g>
</svg>
