<?xml version="1.0" standalone="no"?>
<!DOCTYPE svg PUBLIC "-//W3C//DTD SVG 20010904//EN"
 "http://www.w3.org/TR/2001/REC-SVG-20010904/DTD/svg10.dtd">
<svg version="1.0" xmlns="http://www.w3.org/2000/svg"
 width="207.000000pt" height="207.000000pt" viewBox="0 0 207.000000 207.000000"
 preserveAspectRatio="xMidYMid meet">
<metadata>
Created by potrace 1.10, written by Peter Selinger 2001-2011
</metadata>
<g transform="translate(0.000000,207.000000) scale(0.100000,-0.100000)"
fill="#000000" stroke="none">
<path d="M432 1527 c-21 -22 -22 -32 -22 -210 0 -160 -2 -187 -15 -187 -12 0
-15 19 -15 113 0 106 -2 115 -23 135 -30 28 -48 28 -75 -1 -20 -21 -22 -34
-22 -135 l0 -112 -113 0 c-131 0 -147 -8 -147 -77 0 -65 17 -73 148 -73 l112
0 0 -128 c0 -121 1 -130 23 -150 30 -28 48 -28 75 1 20 21 22 34 22 150 0 106
2 127 15 127 13 0 15 -28 15 -188 0 -184 1 -189 23 -210 31 -29 77 -29 105 1
21 22 22 32 22 210 0 156 2 187 14 187 9 0 16 -12 18 -27 l3 -28 430 0 430 0
3 28 c2 15 9 27 18 27 12 0 14 -31 14 -188 0 -184 1 -189 23 -210 31 -29 77
-29 105 1 21 22 22 32 22 210 0 160 2 187 15 187 13 0 15 -21 15 -128 0 -121
1 -130 23 -150 30 -28 48 -28 75 1 20 21 22 34 22 150 l0 127 114 0 c89 0 116
3 126 15 7 8 19 15 26 15 10 0 14 13 14 45 0 32 -4 45 -14 45 -7 0 -19 7 -26
15 -10 12 -37 15 -126 15 l-114 0 0 113 c0 106 -2 115 -23 135 -30 28 -48 28
-75 -1 -20 -21 -22 -34 -22 -135 0 -93 -3 -112 -15 -112 -13 0 -15 28 -15 188
0 184 -1 189 -23 210 -31 29 -77 29 -105 -1 -21 -22 -22 -32 -22 -210 0 -156
-2 -187 -14 -187 -9 0 -16 12 -18 28 l-3 27 -430 0 -430 0 -3 -27 c-2 -16 -9
-28 -18 -28 -12 0 -14 31 -14 188 0 184 -1 189 -23 210 -31 29 -77 29 -105 -1z"/>
</g>
</svg>
