<?xml version="1.0" standalone="no"?>
<!DOCTYPE svg PUBLIC "-//W3C//DTD SVG 20010904//EN"
 "http://www.w3.org/TR/2001/REC-SVG-20010904/DTD/svg10.dtd">
<svg version="1.0" xmlns="http://www.w3.org/2000/svg"
 width="207.000000pt" height="207.000000pt" viewBox="0 0 207.000000 207.000000"
 preserveAspectRatio="xMidYMid meet">
<metadata>
Created by potrace 1.10, written by Peter Selinger 2001-2011
</metadata>
<g transform="translate(0.000000,207.000000) scale(0.100000,-0.100000)"
fill="#000000" stroke="none">
<path d="M433 1526 c-22 -23 -23 -31 -23 -210 l0 -186 -188 0 c-176 0 -189 -1
-205 -20 -22 -26 -22 -84 0 -110 16 -19 29 -20 205 -20 l188 0 0 -186 c0 -179
1 -187 23 -210 29 -31 75 -31 105 0 21 23 22 31 22 210 0 155 2 186 14 186 9
0 16 -12 18 -27 l3 -28 430 0 430 0 3 28 c2 15 9 27 18 27 12 0 14 -31 14
-187 0 -185 1 -188 24 -211 31 -29 75 -28 104 2 21 23 22 31 22 210 l0 186
190 0 c160 0 192 2 196 15 4 8 15 15 25 15 16 0 19 8 19 45 0 37 -3 45 -19 45
-10 0 -21 7 -25 15 -4 13 -36 15 -196 15 l-190 0 0 188 c0 184 -1 187 -24 210
-13 12 -36 22 -51 22 -15 0 -38 -10 -51 -22 -23 -23 -24 -26 -24 -210 0 -157
-2 -188 -14 -188 -9 0 -16 12 -18 28 l-3 27 -430 0 -430 0 -3 -27 c-2 -16 -9
-28 -18 -28 -12 0 -14 31 -14 186 0 179 -1 187 -22 210 -14 15 -34 24 -53 24
-19 0 -39 -9 -52 -24z"/>
</g>
</svg>
