<?xml version="1.0" standalone="no"?>
<!DOCTYPE svg PUBLIC "-//W3C//DTD SVG 20010904//EN"
 "http://www.w3.org/TR/2001/REC-SVG-20010904/DTD/svg10.dtd">
<svg version="1.0" xmlns="http://www.w3.org/2000/svg"
 width="207.000000pt" height="207.000000pt" viewBox="0 0 207.000000 207.000000"
 preserveAspectRatio="xMidYMid meet">
<metadata>
Created by potrace 1.10, written by Peter Selinger 2001-2011
</metadata>
<g transform="translate(0.000000,207.000000) scale(0.100000,-0.100000)"
fill="#000000" stroke="none">
<path d="M257 1522 c-14 -15 -17 -49 -19 -203 -3 -176 -4 -184 -23 -184 -19 0
-20 8 -23 110 -3 114 -14 145 -52 145 -39 0 -50 -31 -50 -141 0 -107 -7 -129
-40 -129 -25 0 -50 -33 -50 -67 0 -31 26 -63 51 -63 33 0 39 -23 39 -145 0
-114 1 -123 23 -143 l24 -22 26 21 c27 20 27 22 27 144 0 89 4 126 13 134 31
25 37 -9 37 -194 0 -164 2 -184 18 -198 25 -22 75 -21 95 1 15 16 17 45 17
199 0 138 3 183 13 192 31 25 37 -9 37 -194 0 -164 2 -184 18 -198 24 -22 75
-22 95 1 14 15 17 49 19 203 3 176 4 184 23 184 13 0 21 -8 23 -22 l3 -23 424
0 424 0 3 23 c2 14 10 22 23 22 19 0 20 -8 23 -184 3 -206 7 -221 67 -221 60
0 65 15 65 217 0 138 3 183 13 192 31 25 37 -9 37 -194 0 -164 2 -184 18 -198
25 -22 75 -21 95 1 15 16 17 45 17 199 0 138 3 183 13 192 28 23 37 -9 37
-135 0 -121 0 -123 27 -143 l26 -21 23 21 c22 20 24 31 26 147 3 107 5 126 21
133 9 5 25 14 35 19 9 6 25 13 35 16 11 4 17 17 17 39 0 22 -6 35 -17 39 -10
3 -26 10 -35 16 -10 5 -26 14 -35 19 -15 7 -18 25 -21 117 -3 113 -14 144 -52
144 -39 0 -50 -31 -50 -142 0 -75 -4 -109 -13 -117 -31 -25 -37 9 -37 194 0
164 -2 184 -18 198 -25 22 -75 21 -95 -1 -15 -16 -17 -45 -17 -199 0 -138 -3
-183 -13 -192 -31 -25 -37 9 -37 194 0 164 -2 184 -18 198 -24 22 -75 22 -95
-1 -14 -15 -17 -49 -19 -203 -3 -176 -4 -184 -23 -184 -13 0 -21 8 -23 23 l-3
22 -424 0 -424 0 -3 -22 c-2 -15 -10 -23 -23 -23 -19 0 -20 8 -23 184 -3 206
-7 221 -67 221 -60 0 -65 -15 -65 -216 0 -184 -6 -218 -37 -193 -10 9 -13 55
-13 194 0 164 -2 184 -18 198 -24 22 -75 22 -95 -1z"/>
</g>
</svg>
